<?xml version="1.0" encoding="UTF-8"?>
<svg width="30px" height="23px" viewBox="0 0 30 23" version="1.1" xmlns="http://www.w3.org/2000/svg" xmlns:xlink="http://www.w3.org/1999/xlink">
    <!-- Generator: Sketch 49.3 (51167) - http://www.bohemiancoding.com/sketch -->
    <title>Page 1</title>
    <desc>Created with Sketch.</desc>
    <defs></defs>
    <g id="xplodde-symbols" stroke="none" stroke-width="1" fill="none" fill-rule="evenodd" opacity="1" stroke-linecap="round" stroke-linejoin="round">
        <g id="menu-contract-b-copy" transform="translate(-30.000000, -427.000000)" stroke="#FFFFFF">
            <g id="Page-1" transform="translate(30.000000, 427.000000)">
                <path d="M20.625,0.625 L10.625,0.625" id="Stroke-1"></path>
                <path d="M24.375,0.625 L28.125,0.625 C28.8125,0.625 29.375,1.1875 29.375,1.875 L29.375,20.625 C29.375,21.3125 28.8125,21.875 28.125,21.875 L1.875,21.875 C1.1875,21.875 0.625,21.3125 0.625,20.625 L0.625,1.875 C0.625,1.1875 1.1875,0.625 1.875,0.625 L6.875,0.625" id="Stroke-3"></path>
                <path d="M11.875,9.375 C11.875,10.75625 10.75625,11.875 9.375,11.875 C7.99375,11.875 6.875,10.75625 6.875,9.375 C6.875,7.99375 7.99375,6.875 9.375,6.875 C10.75625,6.875 11.875,7.99375 11.875,9.375 Z" id="Stroke-5"></path>
                <path d="M14.375,18.125 L4.375,18.125 L5.34,15.23 C5.51,14.71875 5.9875,14.375 6.52625,14.375 L12.22375,14.375 C12.7625,14.375 13.24,14.71875 13.41,15.23 L14.375,18.125 Z" id="Stroke-7"></path>
                <path d="M19.375,6.875 L25.625,6.875" id="Stroke-9"></path>
                <path d="M19.375,11.875 L25.625,11.875" id="Stroke-11"></path>
                <path d="M19.375,16.875 L25.625,16.875" id="Stroke-13"></path>
                <path d="M10.625,0.625 L10.625,1.25 C10.625,2.2875 9.7875,3.125 8.75,3.125 C7.7125,3.125 6.875,2.2875 6.875,1.25 L6.875,0.625" id="Stroke-15"></path>
                <path d="M24.375,0.625 L24.375,1.25 C24.375,2.2875 23.5375,3.125 22.5,3.125 C21.4625,3.125 20.625,2.2875 20.625,1.25 L20.625,0.625" id="Stroke-17"></path>
            </g>
        </g>
    </g>
</svg>